<?xml version="1.0" encoding="UTF-8" standalone="no"?>
<!-- Created with Inkscape (http://www.inkscape.org/) -->

<svg
   version="1.1"
   id="svg212"
   width="797.75464"
   height="742.7157"
   viewBox="0 0 797.75464 742.7157"
   xmlns="http://www.w3.org/2000/svg"
   xmlns:svg="http://www.w3.org/2000/svg">
  <defs
     id="defs216" />
  <g
     id="g218"
     transform="translate(-90.371695,-132.94678)">
    <g
       id="g330"
       transform="translate(-49.368585)">
      <!-- White face fill for buddy character - moved to back -->
      <ellipse
         style="fill:#ffffff"
         cx="667"
         cy="610"
         rx="150"
         ry="150"
         id="face-fill" />
      <path
         style="fill:#b8dcfb"
         d="m 625.24046,874.43541 c -39.7853,-5.79919 -47.69388,-10.24593 -50.07243,-28.15408 -0.42233,-3.17973 -1.21276,-5.70055 -1.7565,-5.60182 -0.54374,0.0987 -8.84627,1.77901 -18.45007,3.73395 C 376.83466,880.6727 169.23914,836.62138 142.5526,756.9012 l -2.81232,-8.4012 0.20369,-255.81712 c 0.17974,-225.73655 0.38272,-256.42655 1.72621,-261 38.61042,-131.43578 517.83678,-131.741043 560.59614,-0.35709 1.91638,5.88835 1.99983,8.5007 1.80244,56.42269 l -0.20696,50.24848 2.8191,1.08213 c 1.5505,0.59518 7.0941,1.51018 12.3191,2.03334 35.15908,3.52035 45.45828,13.36034 40.53168,38.72448 l -1.73035,8.90854 2.63814,8.64911 c 6.18633,20.2818 27.31107,24.18369 47.67805,8.80646 21.27938,-16.06608 36.70672,-12.13845 58.89989,14.99525 4.11542,5.03159 9.43267,11.4333 11.81611,14.22603 12.02332,14.08804 10.82838,30.57246 -3.15994,43.59167 -22.18202,20.64525 -8.63778,49.41075 23.32642,49.54107 28.24156,0.11514 34.48056,8.72966 37.9829,52.44496 1.7311,21.60707 -0.87021,33.13326 -8.67462,38.43648 -3.48408,2.3675 -5.43162,2.90768 -19.67049,5.45589 -19.17385,3.43138 -28.0752,23.42346 -18.69528,41.98886 3.25854,6.44955 4.46362,7.63321 12.18115,11.96469 17.85315,10.02012 20.62374,21.75504 10.44962,44.25965 -20.00151,44.24226 -30.95203,52.49158 -56.79449,42.7848 -28.08,-10.54724 -50.71479,10.45724 -40.02839,37.14526 8.29411,20.71356 3.94514,30.02545 -19.94129,42.69775 -41.42748,21.97822 -58.62159,21.6136 -69.55351,-1.47497 -11.72418,-24.76184 -53.18015,-18.24888 -53.25002,8.36586 -0.0485,18.46491 -17.1494,26.27376 -47.76512,21.81114 z M 688.52982,747.52737 C 807.90746,728.16492 848.51174,582.68326 757.15062,501.6649 689.0212,441.24823 577.31965,465.10328 538.49875,548.36031 490.91789,650.40434 577.62975,765.5148 688.52982,747.52737 Z M 647.07519,691.9767 c -37.21826,-7.84006 -69.73798,-45.28094 -47.42637,-54.60333 6.6915,-2.79588 10.42277,-1.2565 20.71256,8.54521 26.62755,25.36452 65.70845,26.65494 88.23051,2.91328 2.69946,-2.84564 6.18639,-6.44057 7.74872,-7.98873 11.75393,-11.64728 30.19312,2.16996 21.04158,15.76732 -18.06611,26.84261 -57.48549,42.28013 -90.307,35.36625 z m -68.04056,-94.28314 c -12.3247,-4.24493 -10.37749,-24.51312 3.62754,-37.75849 21.68819,-20.51179 57.57988,-9.17771 61.88681,19.54296 2.90128,19.34718 -20.86124,24.15151 -27.06553,5.47213 -4.00757,-12.06564 -15.59968,-11.97104 -18.50772,0.15102 -2.5092,10.45949 -10.84697,15.72462 -19.9411,12.59238 z M 698,597.34793 c -24.51266,-8.07568 -2.928,-47.78516 26,-47.83241 25.40987,-0.0415 48.78979,30.92572 33.4904,44.35877 -8.97351,7.87884 -16.70328,4.57109 -23.9904,-10.26606 -5.2088,-10.60551 -13.69059,-10.13132 -17.81443,0.99594 -2.24932,6.06931 -6.97589,11.10397 -11.64121,12.40003 -3.84855,1.06915 -3.84334,1.06886 -6.04436,0.34373 z"
         id="path340" />
      <path
         style="fill:#74a3f3"
         d="m 625,873.50604 c -39.93464,-5.9894 -47.00741,-10.04209 -48.87618,-28.00604 -0.4666,-4.48527 -1.00282,-5.96465 -2.124,-5.85998 -0.8249,0.077 -9.27848,1.7617 -18.78574,3.74377 -169.91488,35.42368 -376.34034,-5.32391 -409.75677,-80.88441 -5.85184,-13.23204 -5.55519,2.22421 -5.2397,-272.99938 l 0.28886,-252 2.76582,-7.82783 C 168.57392,158.06359 333.731,118.00533 515,139.51093 c 86.52408,10.26514 158.27479,41.56415 180.28659,78.6444 8.1649,13.75429 8.07254,12.93162 7.79218,69.40178 -0.21159,42.61839 -0.034,50.23514 1.19496,51.2551 1.67943,1.3938 8.39873,2.66568 21.72627,4.11249 28.04421,3.04443 36.98733,13.47708 32.42486,37.82542 -1.6778,8.95384 0.83514,21.56473 5.27467,26.47036 11.32857,12.51792 27.98532,11.98057 46.82576,-1.51061 17.63203,-12.62586 28.72472,-11.2837 45.71974,5.53188 33.13852,32.78862 37.64249,48.05198 19.53219,66.19193 -22.90584,22.94332 -8.66593,54.21433 23.72278,52.09549 19.10261,-1.24968 29.69658,6.07641 32.49417,22.47083 0.61005,3.575 1.81666,10.55 2.68135,15.5 6.4057,36.67007 0.29788,52.99203 -20.78015,55.53088 -31.60711,3.80708 -39.88559,40.82748 -12.60563,56.37093 17.7748,10.12764 20.57624,21.22267 10.80786,42.8043 -20.0705,44.34249 -30.12715,51.98952 -56.34572,42.84505 -29.99749,-10.46248 -52.26165,11.76458 -40.15191,40.085 7.71332,18.03875 2.66095,27.78189 -20.87816,40.26199 -40.18176,21.30381 -57.13718,20.88839 -67.71818,-1.65914 -11.68893,-24.90847 -51.32942,-19.7586 -54.5621,7.0884 C 669.90095,871.92657 656.66282,878.25483 625,873.50604 Z M 480,826.06052 c 34.43858,-3.55562 84.45207,-12.09004 89.13654,-15.21048 2.13766,-1.42394 -4.6389,-6.63826 -11.06156,-8.51147 -10.42241,-3.03977 -19.79486,-0.4699 -30.76713,8.43617 -15.21187,12.34729 -29.14213,10.92391 -44.9739,-4.59541 -33.52117,-32.85958 -38.44968,-46.59685 -22.97042,-64.02567 20.75641,-23.37061 4.87807,-52.23869 -26.4164,-48.02712 -6.78824,0.91356 -9.24784,0.83595 -14.32147,-0.45187 -4.3363,-1.10068 -13.28231,-1.70891 -30.62566,-2.08221 -90.83888,-1.95525 -174.75288,-23.87726 -211.79818,-55.33096 -6.9024,-5.86055 -6.24989,-11.27558 -6.49016,53.86018 L 169.5,747.5 l 2.86667,5.83813 c 18.0344,36.72808 107.74824,67.31943 217.13333,74.03987 11.95231,0.73433 80.25808,-0.26005 90.5,-1.31748 z M 226.89246,769.69199 c -30.25331,-12.69428 -33.62819,-55.69762 -5.65754,-72.08951 38.7503,-22.70919 80.22715,30.84021 48.47844,62.58892 -10.99616,10.99616 -29.48202,15.09758 -42.8209,9.50059 z M 694.92488,747.48127 C 763.48661,732.36907 814.70646,667.05764 808.48601,602.67728 792.28449,434.99502 561.33446,418.07113 526.31578,582 c -20.31377,95.09249 72.90013,186.5772 168.6091,165.48127 z m -41.8643,-55.52166 c -37.38882,-5.10878 -75.52076,-42.9718 -53.7035,-53.32477 6.90698,-3.27757 10.79387,-1.81853 19.87142,7.45924 26.76972,27.3602 66.76641,27.54077 93.20263,0.42077 13.94946,-14.31028 33.89995,-8.43958 25.58102,7.52757 -12.92266,24.80344 -52.29929,42.37877 -84.95157,37.91719 z m -73.84867,-95.08826 c -11.3623,-3.27685 -9.15467,-24.16815 3.83818,-36.32143 21.61617,-20.2194 57.51302,-8.34956 60.71711,20.07703 1.9627,17.41304 -19.55067,21.31459 -25.23461,4.57642 -4.56021,-13.42898 -15.83037,-13.95651 -20.09715,-0.94069 -3.76206,11.47617 -9.68345,15.36 -19.22353,12.60867 z m 118.17584,-0.55903 c -11.79938,-2.32003 -10.59832,-23.20071 2.06277,-35.8618 21.39593,-21.39593 60.53584,-6.59614 60.95913,23.05019 0.24918,17.45218 -18.17162,17.88586 -25.57971,0.60222 -5.20593,-12.14582 -15.36262,-12.33392 -19.82512,-0.36716 -2.48163,6.65481 -5.18245,9.95853 -9.7227,11.89311 -3.23618,1.37892 -4.01455,1.4463 -7.89437,0.68344 z m -299.68922,64.34445 c -0.28349,-0.73877 -0.81097,-4.00127 -1.17216,-7.25 -0.3612,-3.24872 -1.56922,-10.80605 -2.6845,-16.79406 -4.44591,-23.87039 2.51647,-35.56788 23.33313,-39.20199 32.39188,-5.65487 37.10631,-39.31528 8.125,-58.01137 -5.44425,-3.51214 -9.45079,-6.99653 -11.79181,-10.25507 l -3.54579,-4.93547 -15.7312,-0.6135 c -62.70513,-2.44543 -100.70982,-7.45523 -147.79081,-19.48188 -28.08013,-7.17295 -54.45516,-19.91675 -72.52748,-35.04358 l -3.58708,-3.00245 -0.6181,51.2163 c -0.69412,57.51565 -0.20383,67.69117 3.65234,75.80178 11.97119,25.17879 50.56573,44.21546 118.13993,58.27224 35.43077,7.37031 107.89322,13.71533 106.19853,9.29905 z M 230.28604,606.60659 c -33.29451,-10.85841 -37.84586,-58.97378 -7.00362,-74.03996 39.28026,-19.18808 77.08617,32.25509 46.66059,63.49188 -9.68672,9.94499 -27.21263,14.60658 -39.65697,10.54808 z M 418.98947,485.75 c 14.41567,-31.15874 27.03773,-39.69159 47.51053,-32.11842 35.1868,13.01609 60.49559,-7.65598 47.3198,-38.65052 -8.5382,-20.0851 -1.81212,-33.43004 22.71198,-45.0619 43.25992,-20.51833 52.94719,-20.07037 66.46388,3.07341 15.9558,27.3201 50.31505,21.80551 58.67061,-9.4165 2.58385,-9.65501 5.54361,-15.58159 9.73857,-19.50038 L 674,341.65137 V 317.32569 C 674,303.94656 673.62539,293 673.16754,293 c -0.45785,0 -5.25585,2.95753 -10.66222,6.57229 -28.20957,18.86124 -63.22133,30.78115 -117.00532,39.83498 -149.99432,25.24957 -303.80219,6.29195 -369.08703,-45.4919 l -6.08704,-4.82822 -0.61602,56.70642 c -0.70767,65.14221 -0.29706,73.2176 4.21293,82.85524 17.25619,36.87563 112.20543,65.49249 219.68213,66.21025 L 414.70993,495 Z M 232.5,437.65617 c -40.65629,-13.48433 -37.20089,-72.76179 4.58572,-78.66829 37.45306,-5.29395 61.28287,42.81524 33.89633,68.43214 -10.2505,9.58814 -27.00148,14.04387 -38.48205,10.23615 z"
         id="path338" />
      <path
         style="fill:#f67c7c"
         d="m 628,873.54449 c -42.70461,-6.11484 -52,-11.6236 -52,-30.81692 0,-3.76556 -0.13143,-3.93127 -2.75,-3.46718 -1.5125,0.26807 -10.625,2.10639 -20.25,4.08516 C 392.69997,876.30107 192.51891,840.48557 150.70881,771.3694 139.71809,753.20067 140.42942,774.07208 141,486.5 l 0.5,-252 2.7165,-6.78007 c 27.64039,-68.98709 187.37741,-107.96641 363.39381,-88.67602 105.34047,11.54471 186.07972,51.76674 194.39592,96.84258 0.57125,3.09632 0.99377,26.14678 0.99377,54.21482 0,47.32253 0.0599,48.86038 1.94244,49.86788 1.06834,0.57176 7.93084,1.73599 15.25,2.58718 32.89235,3.82524 42.59606,12.69521 38.32228,35.02963 -3.63048,18.97258 1.21763,30.15717 16.43389,37.91299 7.38209,3.7627 20.53368,0.8288 32.24839,-7.19408 26.89805,-18.42127 47.51252,-8.88116 75.63117,35.00112 6.12369,9.5567 2.39682,25.97512 -7.85923,34.62315 -23.65162,19.94334 -8.49039,52.48078 24.20508,51.94641 27.65725,-0.45202 34.96951,10.88726 36.51486,56.62441 0.88993,26.33873 -3.6026,34.21002 -20.52713,35.96535 -31.79468,3.29757 -42.30673,40.24999 -15.94526,56.05141 21.35845,12.80254 23.03709,21.41148 9.64755,49.47785 -19.01842,39.86528 -27.09731,45.34581 -53.66787,36.40701 -29.86516,-10.04717 -51.82665,12.17339 -40.2897,40.76497 8.86301,21.96486 -0.13568,32.66771 -41.96582,49.91328 -23.86188,9.83768 -36.20679,6.95043 -44.98646,-10.52152 C 715.08074,818.93956 672,823.62014 672,850.63759 c 0,18.79837 -15.68069,26.96192 -44,22.9069 z M 464,827.96912 c 39.119,-2.42203 107,-13.51875 107,-17.49163 0,-1.82053 -4.17519,-5.2251 -9.05494,-7.38364 -11.52437,-5.09778 -21.02046,-3.40906 -33.40835,5.94111 -17.43777,13.16174 -29.66998,12.27865 -45.62163,-3.2936 -33.24493,-32.45418 -38.05206,-46.13496 -22.40237,-63.75568 20.61785,-23.21459 7.06431,-48.47986 -26.01271,-48.49051 -8.70614,-0.003 -16.46857,-0.49241 -18.5,-1.16688 -2.07984,-0.69053 -13.84691,-1.38565 -29,-1.71312 -54.94378,-1.1874 -108.32732,-9.81087 -153.5,-24.7961 -21.64538,-7.18046 -45.15295,-19.7059 -57.65345,-30.71923 C 173.28715,632.84493 170.75314,631 170.2154,631 c -1.05917,0 -2.8136,95.33279 -2.00254,108.81484 2.64997,44.04991 97.5235,81.40565 224.78714,88.50824 13.93938,0.77796 56.11389,0.5677 71,-0.35396 z M 233.8122,770.97418 C 188.81246,763.38508 195.29616,693.5 241,693.5 c 47.21071,0 53.00669,68.81814 6.51974,77.41172 -6.48823,1.19941 -6.95336,1.20153 -13.70754,0.0625 z M 691,748.39264 C 814.16614,728.94568 850.4217,569.70952 749.05727,493.40225 679.9806,441.40123 576.15533,467.52453 538.02387,546.5 487.73513,650.65484 575.59832,766.61365 691,748.39264 Z m -40,-57.0187 c -35.24895,-6.8637 -67.50853,-37.01926 -54.02571,-50.50207 6.06489,-6.0649 11.39903,-4.54677 22.98709,6.54225 27.06244,25.897 67.73325,26.27828 91.03055,0.85338 10.93043,-11.92864 16.9809,-13.52996 24.12572,-6.38515 C 754.3541,661.11881 690.01819,698.97158 651,691.37394 Z m -74.22978,-96.34005 c -11.21458,-8.82138 -1.29534,-32.74571 17.1567,-41.38047 20.09515,-9.40365 44.3787,3.02185 49.121,25.13443 3.60203,16.79569 -16.0217,23.97417 -23.02979,8.42444 -4.06314,-9.01539 -4.56747,-9.72271 -8.2052,-11.50787 -6.71121,-3.29342 -11.35437,0.0211 -14.40095,10.28003 -2.87822,9.69201 -13.76,14.46263 -20.64176,9.04944 z m 116.34472,-2.0728 c -9.64499,-9.64498 0.33113,-32.37922 17.62611,-40.16756 16.94403,-7.6303 40.43527,2.6981 47.18835,20.74732 8.2221,21.97554 -11.75997,32.70116 -21.89946,11.75481 -6.17528,-12.75699 -16.82918,-14.3217 -20.96827,-3.07955 -4.94333,13.42648 -14.55796,18.13375 -21.94673,10.74498 z M 398,661.22377 c 0,-3.79365 -2.1126,-19.04911 -3.52036,-25.42118 -4.81839,-21.80986 3.01782,-34.678 23.02036,-37.80259 17.5774,-2.74576 28.3959,-15.45143 27.24706,-32 -0.8145,-11.73251 -5.08143,-17.76852 -19.24564,-27.22491 -4.95094,-3.30538 -9.4815,-7.32806 -11.89052,-10.55758 L 409.71896,523 l -8.60948,-0.002 c -93.94228,-0.0241 -184.24427,-20.94467 -223.13017,-51.69322 -10.05894,-7.95399 -9.08985,-14.12109 -8.75998,55.74656 L 169.5,586.5 l 3.23634,6.83308 c 11.40659,24.08343 46.6889,42.50399 108.26366,56.52344 40.70036,9.26672 117,16.67969 117,11.36725 z M 235.44476,607.01864 c -29.91601,-4.45462 -43.18863,-45.3274 -21.69787,-66.81816 22.36826,-22.36826 60.3389,-8.8154 66.22368,23.63721 4.43509,24.45805 -18.81813,47.00893 -44.52581,43.18095 z M 420.5,483.96698 c 16.45953,-31.63802 27.45305,-37.95715 49.5,-28.45284 29.5885,12.75543 57.27677,-11.54263 45.00762,-39.49677 -10.87803,-24.78462 -1.70193,-36.64789 42.00268,-54.30292 25.45596,-10.28326 33.80582,-8.34228 44.59729,10.36694 16.40053,28.43368 51.70344,24.26148 60.45751,-7.14504 2.85813,-10.25395 6.10333,-16.96883 9.83126,-20.34255 2.03278,-1.83965 2.10364,-2.75753 2.10364,-27.24879 0,-27.96824 0.27542,-27.06867 -6.6655,-21.77055 -95.23906,72.69762 -397.44351,71.78118 -489.64107,-1.48484 -4.12185,-3.27549 -7.76409,-5.68563 -8.09386,-5.35586 -1.89975,1.89976 -0.57603,128.13178 1.41112,134.56541 9.80981,31.76049 62.47849,55.32353 149.98931,67.10259 15.87739,2.13711 25.57993,3.06043 52,4.94842 2.475,0.17687 12.825,0.28293 23,0.2357 l 18.5,-0.0859 6,-11.53302 z M 230.29984,436.19492 c -31.98948,-11.40414 -35.05882,-58.86652 -4.7288,-73.12331 23.86459,-11.21768 51.52109,4.04958 56.4794,31.17839 4.93641,27.00901 -25.17851,51.41777 -51.7506,41.94492 z M 459,319.99405 C 640.84909,309.84263 729.44663,250.38031 634.04063,202.51537 515.35335,142.97027 254.17901,154.08176 181.83158,221.7543 127.04601,272.99979 286.76035,329.60904 459,319.99405 Z"
         id="path336" />
      <path
         style="fill:#5f5f93"
         d="m 628,873.54449 c -42.70461,-6.11484 -52,-11.6236 -52,-30.81692 0,-3.76556 -0.13143,-3.93127 -2.75,-3.46718 -1.5125,0.26807 -10.625,2.10639 -20.25,4.08516 C 392.69997,876.30107 192.51891,840.48557 150.70881,771.3694 139.71809,753.20067 140.42942,774.07208 141,486.5 l 0.5,-252 2.7165,-6.78007 c 27.64039,-68.98709 187.37741,-107.96641 363.39381,-88.67602 105.34047,11.54471 186.07972,51.76674 194.39592,96.84258 0.57125,3.09632 0.99377,26.14678 0.99377,54.21482 0,47.32253 0.0599,48.86038 1.94244,49.86788 1.06834,0.57176 7.93084,1.73599 15.25,2.58718 32.89235,3.82524 42.59606,12.69521 38.32228,35.02963 -3.63048,18.97258 1.21763,30.15717 16.43389,37.91299 7.38209,3.7627 20.53368,0.8288 32.24839,-7.19408 26.89805,-18.42127 47.51252,-8.88116 75.63117,35.00112 6.12369,9.5567 2.39682,25.97512 -7.85923,34.62315 -23.65162,19.94334 -8.49039,52.48078 24.20508,51.94641 27.65725,-0.45202 34.96951,10.88726 36.51486,56.62441 0.88993,26.33873 -3.6026,34.21002 -20.52713,35.96535 -31.79468,3.29757 -42.30673,40.24999 -15.94526,56.05141 21.35845,12.80254 23.03709,21.41148 9.64755,49.47785 -19.01842,39.86528 -27.09731,45.34581 -53.66787,36.40701 -29.86516,-10.04717 -51.82665,12.17339 -40.2897,40.76497 8.86301,21.96486 -0.13568,32.66771 -41.96582,49.91328 -23.86188,9.83768 -36.20679,6.95043 -44.98646,-10.52152 C 715.08074,818.93956 672,823.62014 672,850.63759 c 0,18.79837 -15.68069,26.96192 -44,22.9069 z m 17.99469,-31.0189 c 9.72173,-46.82931 80.61754,-57.62043 104.18661,-15.85834 3.56663,6.31973 3.34464,6.29089 13.96874,1.81475 23.57307,-9.93179 25.89053,-12.12817 22.44687,-21.27409 -8.95838,-23.79236 1.66152,-46.45237 31.44823,-67.10203 11.75465,-8.14892 29.5678,-9.31905 47.8572,-3.14371 7.91137,2.67124 6.9102,3.58942 16.54413,-15.1726 8.75269,-17.04577 8.76848,-17.1291 3.73426,-19.69737 -22.74615,-11.60422 -35.2855,-42.78011 -26.05701,-64.78414 9.17616,-21.87929 20.74755,-33.05109 37.21003,-35.92505 4.38448,-0.76543 8.64014,-1.94638 9.45703,-2.62433 2.8495,-2.36488 -0.1065,-41.64533 -3.14763,-41.82695 -0.62873,-0.0376 -4.74315,-0.0152 -9.14315,0.0496 -50.72951,0.74733 -74.00834,-51.76022 -41.98565,-94.70253 2.88954,-3.87487 4.35173,-6.70352 3.87692,-7.5 -1.37019,-2.2984 -19.11639,-23.2097 -22.06332,-25.99839 l -2.87394,-2.7196 -7.977,4.59564 c -37.85424,21.80825 -73.06799,14.76201 -88.41632,-17.69203 -5.13267,-10.85302 -5.5888,-15.21664 -3.81161,-36.4644 l 0.25092,-3 -13.5,-2.69152 c -7.425,-1.48034 -16.49003,-2.9963 -20.1445,-3.36881 l -6.6445,-0.6773 -1.69519,5.86882 c -14.2623,49.37661 -82.79264,59.9991 -108.13192,16.76089 -3.11367,-5.31307 -2.14352,-5.2903 -14.64915,-0.34388 -27.28311,10.79142 -29.34508,12.61308 -24.70359,21.82456 21.73312,43.13136 -29.43575,89.35641 -79.15214,71.50465 C 459.23747,481.06983 455.7777,480 455.19063,480 c -7.11679,0 -17.84776,35.022 -11.94985,39 44.10048,29.74472 37.26208,86.02091 -12.58472,103.56525 -9.58172,3.37243 -9.17008,2.23003 -6.66813,18.50557 3.76881,24.51668 4.57097,26.12407 12.27681,24.60044 45.75575,-9.04704 79.65249,53.91547 48.88904,90.81041 -5.2451,6.2905 -5.52046,5.13013 3.78397,15.94597 16.43814,19.10835 18.71178,20.33867 27.27541,14.75925 C 556.61023,760.86716 605,785.03851 605,831.53712 v 10.32646 l 7.25,1.57355 c 12.18403,2.64444 23.01327,4.37886 27.9291,4.47313 l 4.6791,0.0897 1.13649,-5.47441 z m 3.40683,-67.54507 C 507.20276,761.21318 444.83451,588.32145 547.1279,491.46669 659.05883,385.48678 835.13879,458.59891 834.9918,610.99387 834.89706,709.20291 749.48727,784.67058 649.40152,774.98052 Z M 691,748.39264 C 814.16614,728.94568 850.4217,569.70952 749.05727,493.40225 679.9806,441.40123 576.15533,467.52453 538.02387,546.5 487.73513,650.65484 575.59832,766.61365 691,748.39264 Z m -40,-57.0187 c -35.24895,-6.8637 -67.50853,-37.01926 -54.02571,-50.50207 6.06489,-6.0649 11.39903,-4.54677 22.98709,6.54225 27.06244,25.897 67.73325,26.27828 91.03055,0.85338 10.93043,-11.92864 16.9809,-13.52996 24.12572,-6.38515 C 754.3541,661.11881 690.01819,698.97158 651,691.37394 Z m -74.22978,-96.34005 c -11.21458,-8.82138 -1.29534,-32.74571 17.1567,-41.38047 20.09515,-9.40365 44.3787,3.02185 49.121,25.13443 3.60203,16.79569 -16.0217,23.97417 -23.02979,8.42444 -4.06314,-9.01539 -4.56747,-9.72271 -8.2052,-11.50787 -6.71121,-3.29342 -11.35437,0.0211 -14.40095,10.28003 -2.87822,9.69201 -13.76,14.46263 -20.64176,9.04944 z m 116.34472,-2.0728 c -9.64499,-9.64498 0.33113,-32.37922 17.62611,-40.16756 16.94403,-7.6303 40.43527,2.6981 47.18835,20.74732 8.2221,21.97554 -11.75997,32.70116 -21.89946,11.75481 -6.17528,-12.75699 -16.82918,-14.3217 -20.96827,-3.07955 -4.94333,13.42648 -14.55796,18.13375 -21.94673,10.74498 z M 464,827.96912 c 39.119,-2.42203 107,-13.51875 107,-17.49163 0,-1.82053 -4.17519,-5.2251 -9.05494,-7.38364 -11.52437,-5.09778 -21.02046,-3.40906 -33.40835,5.94111 -17.43777,13.16174 -29.66998,12.27865 -45.62163,-3.2936 -33.24493,-32.45418 -38.05206,-46.13496 -22.40237,-63.75568 20.61785,-23.21459 7.06431,-48.47986 -26.01271,-48.49051 -8.70614,-0.003 -16.46857,-0.49241 -18.5,-1.16688 -2.07984,-0.69053 -13.84691,-1.38565 -29,-1.71312 -54.94378,-1.1874 -108.32732,-9.81087 -153.5,-24.7961 -21.64538,-7.18046 -45.15295,-19.7059 -57.65345,-30.71923 C 173.28715,632.84493 170.75314,631 170.2154,631 c -1.05917,0 -2.8136,95.33279 -2.00254,108.81484 2.64997,44.04991 97.5235,81.40565 224.78714,88.50824 13.93938,0.77796 56.11389,0.5677 71,-0.35396 z M 233.8122,770.97418 C 188.81246,763.38508 195.29616,693.5 241,693.5 c 47.21071,0 53.00669,68.81814 6.51974,77.41172 -6.48823,1.19941 -6.95336,1.20153 -13.70754,0.0625 z m 13.57292,-29.06248 c 7.62263,-5.99596 7.0379,-15.58496 -1.1884,-19.48859 -10.08724,-4.78671 -20.06478,6.72037 -14.18666,16.36145 3.30265,5.41689 10.58192,6.89743 15.37506,3.12714 z M 398,661.22377 c 0,-3.79365 -2.1126,-19.04911 -3.52036,-25.42118 -4.81839,-21.80986 3.01782,-34.678 23.02036,-37.80259 17.5774,-2.74576 28.3959,-15.45143 27.24706,-32 -0.8145,-11.73251 -5.08143,-17.76852 -19.24564,-27.22491 -4.95094,-3.30538 -9.4815,-7.32806 -11.89052,-10.55758 L 409.71896,523 l -8.60948,-0.002 c -93.94228,-0.0241 -184.24427,-20.94467 -223.13017,-51.69322 -10.05894,-7.95399 -9.08985,-14.12109 -8.75998,55.74656 L 169.5,586.5 l 3.23634,6.83308 c 11.40659,24.08343 46.6889,42.50399 108.26366,56.52344 40.70036,9.26672 117,16.67969 117,11.36725 z M 235.44476,607.01864 c -29.91601,-4.45462 -43.18863,-45.3274 -21.69787,-66.81816 22.36826,-22.36826 60.3389,-8.8154 66.22368,23.63721 4.43509,24.45805 -18.81813,47.00893 -44.52581,43.18095 z m 11.02094,-28.43986 c 10.08609,-4.21424 7.89196,-19.88376 -2.9657,-21.1797 -10.44418,-1.24658 -17.23745,10.87065 -10.2896,18.35367 4.02316,4.33306 7.74789,5.12717 13.2553,2.82603 z M 420.5,483.96698 c 16.45953,-31.63802 27.45305,-37.95715 49.5,-28.45284 29.5885,12.75543 57.27677,-11.54263 45.00762,-39.49677 -10.87803,-24.78462 -1.70193,-36.64789 42.00268,-54.30292 25.45596,-10.28326 33.80582,-8.34228 44.59729,10.36694 16.40053,28.43368 51.70344,24.26148 60.45751,-7.14504 2.85813,-10.25395 6.10333,-16.96883 9.83126,-20.34255 2.03278,-1.83965 2.10364,-2.75753 2.10364,-27.24879 0,-27.96824 0.27542,-27.06867 -6.6655,-21.77055 -95.23906,72.69762 -397.44351,71.78118 -489.64107,-1.48484 -4.12185,-3.27549 -7.76409,-5.68563 -8.09386,-5.35586 -1.89975,1.89976 -0.57603,128.13178 1.41112,134.56541 9.80981,31.76049 62.47849,55.32353 149.98931,67.10259 15.87739,2.13711 25.57993,3.06043 52,4.94842 2.475,0.17687 12.825,0.28293 23,0.2357 l 18.5,-0.0859 6,-11.53302 z M 230.29984,436.19492 c -31.98948,-11.40414 -35.05882,-58.86652 -4.7288,-73.12331 23.86459,-11.21768 51.52109,4.04958 56.4794,31.17839 4.93641,27.00901 -25.17851,51.41777 -51.7506,41.94492 z m 18.62587,-27.6565 c 4.89434,-2.53097 7.03717,-9.70705 4.49702,-15.06002 -3.45006,-7.27045 -12.78742,-8.24388 -18.34634,-1.91262 -8.50952,9.6918 2.3034,22.94327 13.84932,16.97264 z M 459,319.99405 C 640.84909,309.84263 729.44663,250.38031 634.04063,202.51537 515.35335,142.97027 254.17901,154.08176 181.83158,221.7543 127.04601,272.99979 286.76035,329.60904 459,319.99405 Z"
         id="path334" />
      <path
         style="fill:#3f3876"
         d="m 629,872.39868 c -10.42452,-1.38558 -27.63886,-4.5579 -35.70814,-6.58042 -8.97125,-2.24859 -15.00681,-10.5132 -15.81858,-21.66071 -0.51412,-7.06018 -0.94423,-7.38353 -7.49341,-5.63352 C 504.73345,855.95855 397.18263,859.09805 317,845.90873 220.14177,829.97642 161.68886,799.82201 145.12282,757.24155 L 142.5,750.5 v -257 -257 l 2.35678,-6.82587 C 188.06679,104.52622 648.68279,103.86312 698.84247,228.87661 L 701.5,235.5 l 0.29951,52.24131 c 0.27501,47.96907 0.43857,52.31535 2,53.1466 1.65105,0.87897 8.18958,1.94723 24.70049,4.03554 26.34459,3.33208 31.27023,10.43827 27.90488,40.2582 -3.15585,27.96367 26.96012,42.67233 50.62883,24.72716 12.01843,-9.11215 25.14117,-12.95171 33.01781,-9.66064 8.34527,3.48687 39.5256,36.70882 43.59593,46.45049 3.5887,8.58896 -0.29457,20.9419 -9.48743,30.18013 -23.4564,23.57215 -9.46073,54.50823 24.5313,54.22407 17.99375,-0.15043 29.04157,5.84792 30.86991,16.76064 0.33509,2.00008 1.51659,8.3615 2.62556,14.1365 7.63077,39.73785 2.16571,57.13318 -18.68679,59.48021 -33.54051,3.77511 -41.49387,43.62221 -11.95717,59.90657 16.58201,9.1421 18.49995,19.73499 7.76092,42.86403 -19.58532,42.18164 -27.26697,47.84449 -53.10758,39.1505 -30.4252,-10.23647 -55.09997,13.50644 -42.71173,41.09869 9.6939,21.59115 -0.55797,33.50318 -43.48444,50.52619 -21.17638,8.39775 -32.77772,5.26206 -41.03249,-11.09055 -13.86522,-27.46686 -53.55672,-22.79236 -58.15177,6.84857 -3.10355,20.01982 -13.47591,25.38127 -41.81574,21.61447 z m 15.81271,-23.26177 c 0.722,-0.45785 1.87225,-3.54763 2.55612,-6.86618 9.53675,-46.27797 84.97609,-55.49436 103.23652,-12.61235 2.27081,5.33267 4.7136,4.79677 26.03814,-5.71228 14.67428,-7.23171 14.88872,-7.44331 12.7255,-12.55707 -11.54694,-27.29647 2.71838,-57.15638 35.52369,-74.35754 7.00953,-3.67538 26.55544,-3.13819 40.91425,1.12447 l 7.41501,2.20127 1.71753,-2.27699 c 3.01613,-3.99857 17.18581,-33.06852 16.58923,-34.03381 -0.3157,-0.51081 -2.66915,-1.96773 -5.22988,-3.23759 -41.68031,-20.66917 -32.49056,-93.55966 12.40176,-98.36722 11.53104,-1.23487 12.69754,-5.28862 9.33528,-32.44162 -1.92602,-15.5542 -1.50091,-14.96186 -10.26232,-14.29923 -51.47806,3.89327 -76.73278,-50.03496 -43.77272,-93.47106 5.23632,-6.90063 3.73128,-9.78326 -16.82737,-32.22971 l -5.03744,-5.5 -5.81801,3.29964 c -55.1971,31.30466 -102.59389,5.75438 -93.72692,-50.52556 0.84213,-5.34511 1.11038,-5.23432 -22.13785,-9.14288 -21.10653,-3.54849 -19.53066,-3.96922 -22.84815,6.10012 -15.70444,47.66662 -83.0564,56.19735 -106.0846,13.43656 -2.47876,-4.60277 -3.17778,-4.58417 -15.75038,0.41915 -27.69999,11.02333 -29.52856,12.76928 -24.63779,23.52465 19.48498,42.84971 -29.93007,87.67809 -76.91155,69.77268 -10.6922,-4.07498 -9.41391,-5.03151 -19.36456,14.49032 -10.61875,20.83256 -10.55552,17.63239 -0.50343,25.48163 41.71867,32.5763 34.21916,83.96775 -14.62722,100.23509 -9.5768,3.18937 -9.36157,2.66296 -7.2329,17.69011 3.75488,26.50724 5.06142,29.25003 13.22796,27.76915 45.67005,-8.28156 77.94543,49.4732 49.03906,87.7523 -6.07541,8.04532 -6.14814,7.60819 2.99033,17.97378 17.97009,20.38312 19.92858,21.33153 30.25518,14.65129 39.23838,-25.38318 88.53219,1.29037 85.72551,46.38725 -0.48777,7.83733 -0.39335,8.36248 1.64272,9.13659 3.04552,1.1579 17.56712,4.08752 27.62659,5.57344 10.91875,1.61284 10.28555,1.58006 11.81271,0.6116 z M 645,773.36504 C 517.15942,757.60643 452.98246,606.99312 532.35363,509.00159 631.46778,386.63541 820.72035,442.69524 833.05254,598.07372 841.32288,702.27531 751.03551,786.43579 645,773.36504 Z m 47.36305,-23.86912 c 49.09978,-8.56228 97.99819,-48.76154 109.38714,-89.92687 C 803.13018,654.58107 804.88621,648.25 805.65247,645.5 838.64863,527.0826 706.00624,423.10425 598,482.72126 c -142.16314,78.47087 -65.68441,294.6846 94.36305,266.77466 z m -42.19914,-59.54646 c -31.82136,-5.7117 -65.32618,-36.48028 -52.34987,-48.07461 6.17094,-5.51374 11.85699,-3.82492 21.03093,6.24641 23.92299,26.26311 68.15035,26.68572 93.15503,0.89012 10.20528,-10.52808 13.44424,-11.90149 20.03273,-8.49445 10.27325,5.3125 4.77082,18.81235 -13.42758,32.94371 -16.50316,12.81499 -47.41651,20.26261 -68.44124,16.48882 z m -71.86136,-95.1465 c -6.16174,-2.97702 -6.6796,-13.5632 -1.16924,-23.90169 13.71323,-25.72866 49.7707,-25.20487 62.12296,0.90241 6.69821,14.15711 -0.91691,27.64585 -12.19502,21.60115 -3.39322,-1.81865 -4.58776,-3.57669 -8.7685,-12.90483 -5.09031,-11.35757 -18.01531,-8.84593 -21.81951,4.24005 -2.85287,9.81352 -10.23042,13.8992 -18.17069,10.06291 z m 116.35641,-1.85658 C 679.99579,581.41233 701.24624,551.54649 724,551.70987 c 21.03074,0.151 41.8402,23.64059 33.97036,38.34552 -4.91361,9.18116 -15.90567,5.14395 -22.42482,-8.23628 -4.96255,-10.18539 -16.97025,-11.05602 -20.96584,-1.52016 -0.7377,1.76058 -2.0641,4.89163 -2.94757,6.95789 -2.97748,6.96377 -11.65523,9.87263 -16.97317,5.68954 z M 486.5,827.56523 c 52.65829,-5.69757 88.84471,-13.93385 84.85026,-19.31251 -9.13961,-12.30678 -29.75013,-11.77794 -45.31974,1.16285 -14.21744,11.81692 -27.4956,10.17779 -42.92543,-5.29896 -33.25292,-33.35406 -36.73723,-43.37742 -21.46464,-61.74756 20.4921,-24.64826 3.53154,-54.84666 -28.27625,-50.34606 -6.85181,0.96949 -9.11349,0.90069 -14.33077,-0.43591 C 414.79545,690.50136 408.33248,690 398.57444,690 307.81885,690 217.73907,667.386 176.88868,634.34709 173.25246,631.40619 169.83299,629 169.28988,629 c -2.38005,0 -3.31565,113.06667 -0.99107,119.76948 13.67904,39.4429 100.63142,72.15122 213.20119,80.19854 19.45425,1.39074 87.59536,0.48038 105,-1.40279 z M 229.32418,768.61682 c -30.4609,-9.93535 -33.76844,-56.90641 -4.96069,-70.44765 37.5576,-17.65415 73.12273,31.43985 43.92653,60.63605 -9.56853,9.56853 -26.57904,13.85178 -38.96584,9.8116 z m 17.7697,-25.16537 c 6.428,-3.32404 8.93438,-12.60321 4.81782,-17.83657 -9.9196,-12.61073 -28.7521,-0.80965 -21.39913,13.40943 2.8574,5.52559 10.50736,7.5681 16.58131,4.42714 z m 152.28366,-80.25331 c 0.61909,-1.0017 -0.88171,-12.3267 -3.52851,-26.6261 -4.30107,-23.2367 1.74573,-33.74306 21.39461,-37.1733 33.62129,-5.8695 39.74675,-41.39092 10.46332,-60.67665 -7.39094,-4.86759 -10.98577,-8.21225 -15.70696,-14.6139 -1.40603,-1.9065 -3.1601,-2.09951 -28,-3.08108 -100.3451,-3.96521 -172.81544,-22.51429 -208.83747,-53.4528 -2.9356,-2.52133 -5.67425,-4.37608 -6.08589,-4.12168 -1.04159,0.64374 -2.09477,105.07506 -1.16719,115.73641 3.10631,35.70311 51.6204,62.40284 140.3954,77.2666 32.4157,5.42742 89.28343,9.63758 91.07269,6.7425 z m -170.0777,-59.00218 c -30.2963,-10.80663 -33.69677,-56.27745 -5.2345,-69.99526 36.97499,-17.82063 72.64527,29.32332 45.24523,59.79876 -9.38962,10.44353 -26.84626,14.89225 -40.01073,10.1965 z m 20.81781,-27.07831 c 10.40224,-10.40225 -1.15736,-26.31967 -14.21153,-19.5691 -11.78962,6.09665 -7.02312,23.38531 6.46153,23.43671 3.16949,0.0121 4.56845,-0.68607 7.75,-3.86761 z M 422,483.96783 c 16.04665,-30.93836 25.90447,-36.43609 48.5,-27.04855 30.24714,12.56648 57.72937,-12.10872 45.72776,-41.05714 -8.36804,-20.18408 -3.02002,-32.46156 18.77224,-43.09557 43.57052,-21.26118 53.70039,-20.97393 66.86361,1.89608 13.9621,24.25802 52.56115,21.99428 59.72258,-3.50258 4.98026,-17.73125 5.41009,-18.77525 9.89183,-24.02575 L 676,341.83669 v -25.44973 c 0,-29.4287 0.15522,-29.00947 -8.36034,-22.58015 -97.86001,73.88502 -403.21069,72.37755 -491.29915,-2.42547 -8.63827,-7.33545 -7.93577,-11.67673 -8.63608,53.36866 -0.74106,68.83054 -0.44313,74.34738 4.56182,84.47421 14.40185,29.14016 63.3752,50.30397 142.73375,61.68231 31.03622,4.44993 50.28138,5.85943 78,5.71264 L 415.5,496.5 Z M 232.28604,435.60756 c -37.56295,-12.2591 -34.2212,-69.31066 4.35645,-74.37499 43.46377,-5.70575 61.85342,52.64442 22.67072,71.934 -7.65813,3.77009 -19.63912,4.85216 -27.02717,2.44099 z m 17.5117,-26.22962 c 6.81027,-4.40616 8.0052,-14.03654 2.43303,-19.60871 -7.8176,-7.8176 -21.87866,-1.70076 -21.58782,9.39112 0.25457,9.70873 11.04496,15.46456 19.15479,10.21759 z M 466.5,320.94408 C 627.69988,311.56955 721.88728,255.84964 652.11273,211.13825 566.96309,156.57454 369.58707,145.40716 240.35979,187.8416 73.603223,242.59956 230.07033,334.69358 466.5,320.94408 Z"
         id="path332" />
    </g>
  </g>
</svg>
