<?xml version="1.0"?>


<svg version="1.1" id="svg1" width="323.52615" height="335.92868" viewBox="0 0 323.52614 335.92868" xmlns:inkscape="http://www.inkscape.org/namespaces/inkscape" xmlns:sodipodi="http://sodipodi.sourceforge.net/DTD/sodipodi-0.dtd" xmlns:xlink="http://www.w3.org/1999/xlink" xmlns="http://www.w3.org/2000/svg" xmlns:svg="http://www.w3.org/2000/svg">
  <defs id="defs1">
    <color-profile name="sRGB IEC61966-2.1" id="color-profile2152"></color-profile>
    <clipPath clipPathUnits="userSpaceOnUse" id="clipPath4">
      <path d="M 0,680 H 680 V 0 H 0 Z" transform="translate(-146.02851,-210.40731)" id="path4"></path>
    </clipPath>
    <clipPath clipPathUnits="userSpaceOnUse" id="clipPath6">
      <path d="M 0,680 H 680 V 0 H 0 Z" transform="translate(-171.46281,-210.40731)" id="path6"></path>
    </clipPath>
    <clipPath clipPathUnits="userSpaceOnUse" id="clipPath8">
      <path d="M 0,680 H 680 V 0 H 0 Z" transform="translate(-213.3763,-231.66261)" id="path8"></path>
    </clipPath>
    <clipPath clipPathUnits="userSpaceOnUse" id="clipPath10">
      <path d="M 0,680 H 680 V 0 H 0 Z" id="path10"></path>
    </clipPath>
    <clipPath clipPathUnits="userSpaceOnUse" id="clipPath12">
      <path d="M 0,680 H 680 V 0 H 0 Z" id="path12"></path>
    </clipPath>
    <clipPath clipPathUnits="userSpaceOnUse" id="clipPath14">
      <path d="M 0,680 H 680 V 0 H 0 Z" transform="translate(-281.99011,-196.5797)" id="path14"></path>
    </clipPath>
    <clipPath clipPathUnits="userSpaceOnUse" id="clipPath16">
      <path d="M 0,680 H 680 V 0 H 0 Z" id="path16"></path>
    </clipPath>
    <clipPath clipPathUnits="userSpaceOnUse" id="clipPath18">
      <path d="M 0,680 H 680 V 0 H 0 Z" transform="translate(-323.76031,-196.9613)" id="path18"></path>
    </clipPath>
    <clipPath clipPathUnits="userSpaceOnUse" id="clipPath20">
      <path d="M 0,680 H 680 V 0 H 0 Z" transform="translate(-362.21051,-202.8126)" id="path20"></path>
    </clipPath>
    <clipPath clipPathUnits="userSpaceOnUse" id="clipPath22">
      <path d="M 0,680 H 680 V 0 H 0 Z" id="path22"></path>
    </clipPath>
    <clipPath clipPathUnits="userSpaceOnUse" id="clipPath24">
      <path d="M 0,680 H 680 V 0 H 0 Z" transform="translate(-410.59601,-202.8126)" id="path24"></path>
    </clipPath>
    <clipPath clipPathUnits="userSpaceOnUse" id="clipPath26">
      <path d="M 0,680 H 680 V 0 H 0 Z" transform="translate(-436.65181,-216.01941)" id="path26"></path>
    </clipPath>
    <clipPath clipPathUnits="userSpaceOnUse" id="clipPath28">
      <path d="M 0,680 H 680 V 0 H 0 Z" id="path28"></path>
    </clipPath>
    <clipPath clipPathUnits="userSpaceOnUse" id="clipPath30">
      <path d="M 0,680 H 680 V 0 H 0 Z" id="path30"></path>
    </clipPath>
    <clipPath clipPathUnits="userSpaceOnUse" id="clipPath32">
      <path d="M 0,680 H 680 V 0 H 0 Z" transform="translate(-496.90681,-196.5797)" id="path32"></path>
    </clipPath>
    <clipPath clipPathUnits="userSpaceOnUse" id="clipPath34">
      <path d="M 0,680 H 680 V 0 H 0 Z" id="path34"></path>
    </clipPath>
    <clipPath clipPathUnits="userSpaceOnUse" id="clipPath36">
      <path d="M 0,680 H 680 V 0 H 0 Z" id="path36"></path>
    </clipPath>
    <clipPath clipPathUnits="userSpaceOnUse" id="clipPath38">
      <path d="M 0,680 H 680 V 0 H 0 Z" transform="translate(-579.61111,-196.5797)" id="path38"></path>
    </clipPath>
    <clipPath clipPathUnits="userSpaceOnUse" id="clipPath40">
      <path d="M 0,680 H 680 V 0 H 0 Z" transform="translate(-465.28611,-387.97911)" id="path40"></path>
    </clipPath>
    <clipPath clipPathUnits="userSpaceOnUse" id="clipPath42">
      <path d="M 0,680 H 680 V 0 H 0 Z" transform="translate(-382.53461,-351.33041)" id="path42"></path>
    </clipPath>
    <clipPath clipPathUnits="userSpaceOnUse" id="clipPath44">
      <path d="M 0,680 H 680 V 0 H 0 Z" transform="translate(-299.86941,-351.33041)" id="path44"></path>
    </clipPath>
    <clipPath clipPathUnits="userSpaceOnUse" id="clipPath46">
      <path d="M 0,680 H 680 V 0 H 0 Z" transform="translate(-382.53461,-464.80431)" id="path46"></path>
    </clipPath>
    <clipPath clipPathUnits="userSpaceOnUse" id="clipPath48">
      <path d="M 0,680 H 680 V 0 H 0 Z" transform="translate(-301.87281,-464.80431)" id="path48"></path>
    </clipPath>
    <clipPath clipPathUnits="userSpaceOnUse" id="clipPath50">
      <path d="M 0,680 H 680 V 0 H 0 Z" transform="translate(-391.70971,-460.81481)" id="path50"></path>
    </clipPath>
    <clipPath clipPathUnits="userSpaceOnUse" id="clipPath52">
      <path d="M 0,680 H 680 V 0 H 0 Z" transform="translate(-295.90521,-464.80431)" id="path52"></path>
    </clipPath>
    <clipPath clipPathUnits="userSpaceOnUse" id="clipPath54">
      <path d="M 0,680 H 680 V 0 H 0 Z" transform="translate(-295.90521,-461.34711)" id="path54"></path>
    </clipPath>
    <clipPath clipPathUnits="userSpaceOnUse" id="clipPath56">
      <path d="M 0,680 H 680 V 0 H 0 Z" transform="translate(-376.56691,-363.50701)" id="path56"></path>
    </clipPath>
    <clipPath clipPathUnits="userSpaceOnUse" id="clipPath58">
      <path d="M 0,680 H 680 V 0 H 0 Z" id="path58"></path>
    </clipPath>
    <clipPath clipPathUnits="userSpaceOnUse" id="clipPath60">
      <path d="M 0,680 H 680 V 0 H 0 Z" transform="translate(-318.96391,-407.61741)" id="path60"></path>
    </clipPath>
    <clipPath clipPathUnits="userSpaceOnUse" id="clipPath62">
      <path d="M 0,680 H 680 V 0 H 0 Z" transform="translate(-314.09451,-412.09051)" id="path62"></path>
    </clipPath>
    <clipPath clipPathUnits="userSpaceOnUse" id="clipPath64">
      <path d="M 0,680 H 680 V 0 H 0 Z" transform="translate(-249.6367,-429.13331)" id="path64"></path>
    </clipPath>
    <clipPath clipPathUnits="userSpaceOnUse" id="clipPath66">
      <path d="M 0,680 H 680 V 0 H 0 Z" transform="translate(-428.80301,-429.13331)" id="path66"></path>
    </clipPath>
    <clipPath clipPathUnits="userSpaceOnUse" id="clipPath68">
      <path d="M 0,680 H 680 V 0 H 0 Z" transform="translate(-249.63691,-425.67651)" id="path68"></path>
    </clipPath>
    <clipPath clipPathUnits="userSpaceOnUse" id="clipPath70">
      <path d="M 0,680 H 680 V 0 H 0 Z" transform="translate(-421.66271,-390.45841)" id="path70"></path>
    </clipPath>
    <clipPath clipPathUnits="userSpaceOnUse" id="clipPath72">
      <path d="M 0,680 H 680 V 0 H 0 Z" transform="translate(-295.90521,-347.87331)" id="path72"></path>
    </clipPath>
    <clipPath clipPathUnits="userSpaceOnUse" id="clipPath74">
      <path d="M 0,680 H 680 V 0 H 0 Z" transform="translate(-353.10241,-398.38081)" id="path74"></path>
    </clipPath>
    <clipPath clipPathUnits="userSpaceOnUse" id="clipPath76">
      <path d="M 0,680 H 680 V 0 H 0 Z" id="path76"></path>
    </clipPath>
    <clipPath clipPathUnits="userSpaceOnUse" id="clipPath78">
      <path d="M 0,680 H 680 V 0 H 0 Z" transform="translate(-437.93471,-475.52121)" id="path78"></path>
    </clipPath>
    <clipPath clipPathUnits="userSpaceOnUse" id="clipPath80">
      <path d="M 0,680 H 680 V 0 H 0 Z" transform="translate(-349.80411,-297.62721)" id="path80"></path>
    </clipPath>
    <clipPath clipPathUnits="userSpaceOnUse" id="clipPath82">
      <path d="M 0,680 H 680 V 0 H 0 Z" id="path82"></path>
    </clipPath>
    <clipPath clipPathUnits="userSpaceOnUse" id="clipPath84">
      <path d="M 0,680 H 680 V 0 H 0 Z" transform="translate(-359.30641,-338.85081)" id="path84"></path>
    </clipPath>
    <clipPath clipPathUnits="userSpaceOnUse" id="clipPath86">
      <path d="M 0,680 H 680 V 0 H 0 Z" transform="translate(-348.77561,-338.85081)" id="path86"></path>
    </clipPath>
    <clipPath clipPathUnits="userSpaceOnUse" id="clipPath88">
      <path d="M 0,680 H 680 V 0 H 0 Z" transform="translate(-201.68491,-179.10371)" id="path88"></path>
    </clipPath>
    <clipPath clipPathUnits="userSpaceOnUse" id="clipPath90">
      <path d="M 0,680 H 680 V 0 H 0 Z" transform="translate(-223.1908,-179.10371)" id="path90"></path>
    </clipPath>
    <clipPath clipPathUnits="userSpaceOnUse" id="clipPath92">
      <path d="M 0,680 H 680 V 0 H 0 Z" transform="translate(-234.9283,-169.1811)" id="path92"></path>
    </clipPath>
    <clipPath clipPathUnits="userSpaceOnUse" id="clipPath94">
      <path d="M 0,680 H 680 V 0 H 0 Z" transform="translate(-246.9787,-179.10371)" id="path94"></path>
    </clipPath>
    <clipPath clipPathUnits="userSpaceOnUse" id="clipPath96">
      <path d="M 0,680 H 680 V 0 H 0 Z" transform="translate(-268.52521,-179.10371)" id="path96"></path>
    </clipPath>
    <clipPath clipPathUnits="userSpaceOnUse" id="clipPath98">
      <path d="M 0,680 H 680 V 0 H 0 Z" transform="translate(-284.82861,-179.10371)" id="path98"></path>
    </clipPath>
    <clipPath clipPathUnits="userSpaceOnUse" id="clipPath100">
      <path d="M 0,680 H 680 V 0 H 0 Z" transform="translate(-302.30591,-171.7305)" id="path100"></path>
    </clipPath>
    <clipPath clipPathUnits="userSpaceOnUse" id="clipPath102">
      <path d="M 0,680 H 680 V 0 H 0 Z" transform="translate(-312.27051,-179.10371)" id="path102"></path>
    </clipPath>
    <clipPath clipPathUnits="userSpaceOnUse" id="clipPath104">
      <path d="M 0,680 H 680 V 0 H 0 Z" transform="translate(-338.81051,-168.8712)" id="path104"></path>
    </clipPath>
    <clipPath clipPathUnits="userSpaceOnUse" id="clipPath106">
      <path d="M 0,680 H 680 V 0 H 0 Z" transform="translate(-350.41071,-167.04491)" id="path106"></path>
    </clipPath>
    <clipPath clipPathUnits="userSpaceOnUse" id="clipPath108">
      <path d="M 0,680 H 680 V 0 H 0 Z" id="path108"></path>
    </clipPath>
    <clipPath clipPathUnits="userSpaceOnUse" id="clipPath110">
      <path d="M 0,680 H 680 V 0 H 0 Z" transform="translate(-377.93821,-179.10371)" id="path110"></path>
    </clipPath>
    <clipPath clipPathUnits="userSpaceOnUse" id="clipPath112">
      <path d="M 0,680 H 680 V 0 H 0 Z" transform="translate(-395.27391,-179.10371)" id="path112"></path>
    </clipPath>
    <clipPath clipPathUnits="userSpaceOnUse" id="clipPath114">
      <path d="M 0,680 H 680 V 0 H 0 Z" transform="translate(-405.25531,-168.8712)" id="path114"></path>
    </clipPath>
    <clipPath clipPathUnits="userSpaceOnUse" id="clipPath116">
      <path d="M 0,680 H 680 V 0 H 0 Z" transform="translate(-427.64481,-169.0086)" id="path116"></path>
    </clipPath>
    <clipPath clipPathUnits="userSpaceOnUse" id="clipPath118">
      <path d="M 0,680 H 680 V 0 H 0 Z" transform="translate(-441.00251,-171.7305)" id="path118"></path>
    </clipPath>
    <clipPath clipPathUnits="userSpaceOnUse" id="clipPath120">
      <path d="M 0,680 H 680 V 0 H 0 Z" transform="translate(-458.71971,-169.1811)" id="path120"></path>
    </clipPath>
    <clipPath clipPathUnits="userSpaceOnUse" id="clipPath122">
      <path d="M 0,680 H 680 V 0 H 0 Z" transform="translate(-470.83881,-179.10371)" id="path122"></path>
    </clipPath>
    <clipPath clipPathUnits="userSpaceOnUse" id="clipPath10-0">
      <path d="M 0,680 H 680 V 0 H 0 Z" id="path10-0"></path>
    </clipPath>
    <clipPath clipPathUnits="userSpaceOnUse" id="clipPath12-1">
      <path d="M 0,680 H 680 V 0 H 0 Z" id="path12-0"></path>
    </clipPath>
    <clipPath clipPathUnits="userSpaceOnUse" id="clipPath14-3">
      <path d="M 0,680 H 680 V 0 H 0 Z" transform="translate(-281.99011,-196.5797)" id="path14-0"></path>
    </clipPath>
    <clipPath clipPathUnits="userSpaceOnUse" id="clipPath16-0">
      <path d="M 0,680 H 680 V 0 H 0 Z" id="path16-3"></path>
    </clipPath>
    <clipPath clipPathUnits="userSpaceOnUse" id="clipPath18-8">
      <path d="M 0,680 H 680 V 0 H 0 Z" transform="translate(-323.76031,-196.9613)" id="path18-3"></path>
    </clipPath>
    <clipPath clipPathUnits="userSpaceOnUse" id="clipPath20-6">
      <path d="M 0,680 H 680 V 0 H 0 Z" transform="translate(-362.21051,-202.8126)" id="path20-0"></path>
    </clipPath>
    <clipPath clipPathUnits="userSpaceOnUse" id="clipPath22-4">
      <path d="M 0,680 H 680 V 0 H 0 Z" id="path22-0"></path>
    </clipPath>
    <clipPath clipPathUnits="userSpaceOnUse" id="clipPath24-9">
      <path d="M 0,680 H 680 V 0 H 0 Z" transform="translate(-410.59601,-202.8126)" id="path24-2"></path>
    </clipPath>
    <clipPath clipPathUnits="userSpaceOnUse" id="clipPath26-4">
      <path d="M 0,680 H 680 V 0 H 0 Z" transform="translate(-436.65181,-216.01941)" id="path26-9"></path>
    </clipPath>
    <clipPath clipPathUnits="userSpaceOnUse" id="clipPath28-2">
      <path d="M 0,680 H 680 V 0 H 0 Z" id="path28-9"></path>
    </clipPath>
    <clipPath clipPathUnits="userSpaceOnUse" id="clipPath30-1">
      <path d="M 0,680 H 680 V 0 H 0 Z" id="path30-0"></path>
    </clipPath>
    <clipPath clipPathUnits="userSpaceOnUse" id="clipPath32-9">
      <path d="M 0,680 H 680 V 0 H 0 Z" transform="translate(-496.90681,-196.5797)" id="path32-3"></path>
    </clipPath>
  </defs>
  <namedview id="namedview1" pagecolor="#ffffff" bordercolor="#000000" borderopacity="0.25" showgrid="false">
    <page x="0" y="0" id="page1" width="323.52615" height="335.92868" margin="222.31334 120" bleed="0"></page>
  </namedview>
  <g id="layer-MC0" transform="translate(-39.926838,-276.61326)">
    <g id="g778" transform="matrix(0.96836289,0,0,0.96836289,20.95848,14.500092)">
      <g id="g518" transform="translate(26.22379,13.609124)">
        <ellipse style="fill:#ffffff;stroke:none;stroke-width:22.0082" id="path1491" cx="199.0648" cy="407.39908" rx="106.09199" ry="81.398163" transform="matrix(1.0326707,0,0,1.0326707,-47.866999,-28.582944)"></ellipse>
        <path id="path39" d="m 0,0 c 0,-69.194 -56.092,-125.286 -125.286,-125.286 -69.194,0 -125.286,56.092 -125.286,125.286 0,69.194 56.092,125.286 125.286,125.286 C -56.092,125.286 0,69.194 0,0" style="fill:#5ec1fb;fill-opacity:1;fill-rule:nonzero;stroke:none" transform="matrix(1.3333333,0,0,-1.3333333,327.46027,424.11547)" clip-path="url(#clipPath40)"></path>
        <path id="path41" d="M 0,0 H -86.629 C -106.33,0 -122.3,-15.97 -122.3,-35.671 v -0.92 c 0,-4.41 3.064,-8.19 7.357,-9.201 20.734,-4.885 37.13,-20.994 42.444,-41.561 1.124,-4.352 4.988,-7.433 9.484,-7.433 h 39.401 c 4.496,0 8.359,3.081 9.484,7.433 5.314,20.567 21.709,36.676 42.444,41.561 4.292,1.011 7.357,4.791 7.357,9.201 v 0.92 C 35.671,-15.97 19.701,0 0,0" style="fill:#5ec1fb;fill-opacity:1;fill-rule:nonzero;stroke:none" transform="matrix(1.3333333,0,0,-1.3333333,217.12493,472.9804)" clip-path="url(#clipPath42)"></path>
        <path id="path43" d="m 0,0 v -21.081 c 0,-3.571 2.181,-6.718 5.449,-8.158 7.289,-3.211 13.133,-9.097 16.293,-16.414 1.208,-2.796 3.978,-4.593 7.024,-4.593 h 21.169 c 3.046,0 5.816,1.797 7.023,4.593 3.161,7.317 9.005,13.203 16.294,16.414 3.268,1.44 5.449,4.587 5.449,8.158 V 0" style="fill:#ff7564;fill-opacity:1;fill-rule:nonzero;stroke:none" transform="matrix(1.3333333,0,0,-1.3333333,106.90467,472.9804)" clip-path="url(#clipPath44)"></path>
        <path id="path45" d="m 0,0 v 0 c -4.205,0 -8.069,-2.314 -10.055,-6.021 l -6.39,-11.932 c -2.146,-4.006 -6.322,-6.507 -10.867,-6.507 h -32.005 c -4.545,0 -8.721,2.501 -10.867,6.507 l -6.391,11.932 C -78.56,-2.314 -82.424,0 -86.629,0 V 0 C -106.33,0 -122.3,-15.97 -122.3,-35.671 v -42.132 c 0,-19.7 15.97,-35.671 35.671,-35.671 H 0 c 19.701,0 35.671,15.971 35.671,35.671 v 42.132 C 35.671,-15.97 19.701,0 0,0" style="fill:#5ec1fb;fill-opacity:1;fill-rule:nonzero;stroke:none" transform="matrix(1.3333333,0,0,-1.3333333,217.12493,321.68187)" clip-path="url(#clipPath46)"></path>
        <path id="path47" d="M 0,0 V 0 C -16.986,0 -30.757,-13.77 -30.757,-30.756 V -67.084 C -30.757,-84.07 -16.986,-97.84 0,-97.84 h 74.694 c 16.987,0 30.757,13.77 30.757,30.756 v 36.327 C 105.451,-13.77 91.681,0 74.694,0 v 0" style="fill:#ffffff;fill-opacity:1;fill-rule:nonzero;stroke:none" transform="matrix(1.3333333,0,0,-1.3333333,109.57587,321.68187)" clip-path="url(#clipPath48)"></path>
        <path id="path49" d="m 0,0 c 2.302,-4.311 3.61,-9.233 3.61,-14.462 v -43.67 c 0,-12.931 -10.482,-23.413 -23.413,-23.413 h -82.038 c -5.507,0 -10.671,1.454 -15.142,3.989 5.176,-9.695 15.388,-16.295 27.146,-16.295 h 74.694 c 16.987,0 30.757,13.77 30.757,30.757 v 36.327 C 15.614,-15.288 9.32,-5.284 0,0" style="fill:#e6e7e8;fill-opacity:1;fill-rule:nonzero;stroke:none" transform="matrix(1.3333333,0,0,-1.3333333,229.3584,327.0012)" clip-path="url(#clipPath50)"></path>
        <path id="path51" d="m 0,0 c 4.205,0 8.069,-2.314 10.055,-6.021 l 6.39,-11.932 c 2.146,-4.006 6.322,-6.507 10.867,-6.507 h 32.005 c 4.545,0 8.721,2.501 10.867,6.507 l 6.391,11.932 C 78.56,-2.314 82.424,0 86.629,0 Z" style="fill:#5ec1fb;fill-opacity:1;fill-rule:nonzero;stroke:none" transform="matrix(1.3333333,0,0,-1.3333333,101.61907,321.68187)" clip-path="url(#clipPath52)"></path>
        <path id="path53" d="m 0,0 c -17.763,0 -32.214,-14.451 -32.214,-32.214 v -42.132 c 0,-17.763 14.451,-32.214 32.214,-32.214 h 86.629 c 17.763,0 32.215,14.451 32.215,32.214 v 42.132 C 118.844,-14.451 104.392,0 86.629,0 83.693,0 81.008,-1.608 79.622,-4.196 l -6.39,-11.932 C 70.479,-21.267 65.148,-24.46 59.317,-24.46 H 27.312 c -5.83,0 -11.162,3.193 -13.914,8.332 L 7.007,-4.196 C 5.621,-1.607 2.936,0 0,0 M 86.629,-113.474 H 0 c -21.575,0 -39.128,17.553 -39.128,39.128 v 42.132 c 0,21.575 17.553,39.128 39.128,39.128 5.49,0 10.511,-3.007 13.102,-7.846 l 6.391,-11.931 c 1.547,-2.889 4.543,-4.683 7.819,-4.683 h 32.005 c 3.277,0 6.273,1.794 7.82,4.683 l 6.39,11.931 c 2.592,4.84 7.612,7.846 13.102,7.846 21.576,0 39.129,-17.553 39.129,-39.128 v -42.132 c 0,-21.575 -17.553,-39.128 -39.129,-39.128" style="fill:#262261;fill-opacity:1;fill-rule:nonzero;stroke:none" transform="matrix(1.3333333,0,0,-1.3333333,101.61907,326.29147)" clip-path="url(#clipPath54)"></path>
        <path id="path55" d="m 0,0 h -74.694 c -18.865,0 -34.214,15.348 -34.214,34.214 v 36.327 c 0,18.865 15.349,34.213 34.214,34.213 V 97.84 c -15.053,0 -27.3,-12.246 -27.3,-27.299 V 34.214 c 0,-15.053 12.247,-27.3 27.3,-27.3 L 0,6.914 c 15.053,0 27.3,12.247 27.3,27.3 V 70.541 C 27.3,85.594 15.053,97.84 0,97.84 v 6.914 c 18.865,0 34.214,-15.348 34.214,-34.213 V 34.214 C 34.214,15.348 18.865,0 0,0" style="fill:#262261;fill-opacity:1;fill-rule:nonzero;stroke:none" transform="matrix(1.3333333,0,0,-1.3333333,209.168,456.74494)" clip-path="url(#clipPath56)"></path>
        <path id="path57" d="m 382.535,461.347 h -86.629 v 6.914 h 86.629 z" style="fill:#262261;fill-opacity:1;fill-rule:nonzero;stroke:none" transform="matrix(1.3333333,0,0,-1.3333333,-292.9212,941.42094)" clip-path="url(#clipPath58)"></path>
        <path id="path59" d="m 0,0 c 0,-7.943 -4.816,-14.382 -10.758,-14.382 -5.941,0 -10.758,6.439 -10.758,14.382 0,7.943 4.817,14.382 10.758,14.382 C -4.816,14.382 0,7.943 0,0" style="fill:#262261;fill-opacity:1;fill-rule:nonzero;stroke:none" transform="matrix(1.3333333,0,0,-1.3333333,132.364,397.93107)" clip-path="url(#clipPath60)"></path>
        <path id="path61" d="m 0,0 c 0,-1.845 -1.496,-3.341 -3.341,-3.341 -1.845,0 -3.34,1.496 -3.34,3.341 0,1.845 1.495,3.341 3.34,3.341 C -1.496,3.341 0,1.845 0,0" style="fill:#ffffff;fill-opacity:1;fill-rule:nonzero;stroke:none" transform="matrix(1.3333333,0,0,-1.3333333,125.87147,391.96694)" clip-path="url(#clipPath62)"></path>
        <path id="path63" d="m 0,0 c -4.182,0 -7.571,-3.39 -7.571,-7.571 v -26.99 c 0,-4.181 3.389,-7.571 7.571,-7.571 H 10.597 V 0 Z" style="fill:#ff7564;fill-opacity:1;fill-rule:nonzero;stroke:none" transform="matrix(1.3333333,0,0,-1.3333333,39.927728,369.2432)" clip-path="url(#clipPath64)"></path>
        <path id="path65" d="M 0,0 H -10.597 V -42.132 H 0 c 4.182,0 7.571,3.39 7.571,7.571 v 26.99 C 7.571,-3.39 4.182,0 0,0" style="fill:#ff7564;fill-opacity:1;fill-rule:nonzero;stroke:none" transform="matrix(1.3333333,0,0,-1.3333333,278.81613,369.2432)" clip-path="url(#clipPath66)"></path>
        <path id="path67" d="m 0,0 c -2.269,0 -4.115,-1.846 -4.115,-4.115 v -26.989 c 0,-2.268 1.846,-4.114 4.115,-4.114 H 7.14 V 0 Z M 14.054,-42.132 H 0 c -6.081,0 -11.029,4.947 -11.029,11.028 v 26.989 c 0,6.081 4.948,11.029 11.029,11.029 h 14.054 z" style="fill:#262261;fill-opacity:1;fill-rule:nonzero;stroke:none" transform="matrix(1.3333333,0,0,-1.3333333,39.927998,373.85227)" clip-path="url(#clipPath68)"></path>
        <path id="path69" d="m 0,0 h 7.14 c 2.269,0 4.115,1.846 4.115,4.114 v 26.989 c 0,2.269 -1.846,4.115 -4.115,4.115 H 0 Z M 7.14,-6.914 H -6.914 V 42.132 H 7.14 c 6.081,0 11.029,-4.948 11.029,-11.029 V 4.114 c 0,-6.081 -4.948,-11.028 -11.029,-11.028" style="fill:#262261;fill-opacity:1;fill-rule:nonzero;stroke:none" transform="matrix(1.3333333,0,0,-1.3333333,269.29573,420.80974)" clip-path="url(#clipPath70)"></path>
        <path id="path71" d="m 0,0 c -17.763,0 -32.214,-14.451 -32.214,-32.214 v -0.92 c 0,-2.785 1.93,-5.185 4.693,-5.836 22.077,-5.201 39.32,-22.085 44.998,-44.061 0.737,-2.85 3.26,-4.841 6.137,-4.841 h 39.402 c 2.876,0 5.4,1.991 6.136,4.841 5.678,21.976 22.921,38.86 44.998,44.061 2.763,0.651 4.694,3.051 4.694,5.836 v 0.92 C 118.844,-14.451 104.392,0 86.629,0 Z M 63.016,-94.786 H 23.614 c -6.029,0 -11.306,4.123 -12.831,10.026 -5.034,19.483 -20.319,34.45 -39.89,39.06 -5.9,1.391 -10.021,6.557 -10.021,12.566 v 0.92 c 0,21.575 17.553,39.128 39.128,39.128 h 86.629 c 21.576,0 39.129,-17.553 39.129,-39.128 v -0.92 c 0,-6.009 -4.122,-11.175 -10.022,-12.566 -19.571,-4.611 -34.856,-19.578 -39.89,-39.06 -1.525,-5.903 -6.801,-10.026 -12.83,-10.026" style="fill:#262261;fill-opacity:1;fill-rule:nonzero;stroke:none" transform="matrix(1.3333333,0,0,-1.3333333,101.61907,477.58987)" clip-path="url(#clipPath72)"></path>
        <path id="path73" d="m 0,0 c -0.326,0 -0.657,0.046 -0.985,0.144 -1.83,0.543 -2.874,2.467 -2.331,4.297 2.451,8.261 10.181,14.031 18.798,14.031 8.617,0 16.347,-5.77 18.799,-14.031 0.543,-1.83 -0.5,-3.754 -2.331,-4.297 -1.829,-0.546 -3.754,0.5 -4.298,2.331 -1.587,5.348 -6.592,9.083 -12.17,9.083 C 9.904,11.558 4.9,7.823 3.313,2.475 2.867,0.972 1.491,0 0,0" style="fill:#262261;fill-opacity:1;fill-rule:nonzero;stroke:none" transform="matrix(1.3333333,0,0,-1.3333333,177.882,410.24654)" clip-path="url(#clipPath74)"></path>
        <path id="path75" d="m 432.26,429.134 h -6.914 v 46.988 h 6.914 z" style="fill:#262261;fill-opacity:1;fill-rule:nonzero;stroke:none" transform="matrix(1.3333333,0,0,-1.3333333,-292.9212,941.42094)" clip-path="url(#clipPath76)"></path>
        <path id="path77" d="m 0,0 c 0,-5.043 -4.088,-9.132 -9.132,-9.132 -5.043,0 -9.131,4.089 -9.131,9.132 0,5.043 4.088,9.132 9.131,9.132 C -4.088,9.132 0,5.043 0,0" style="fill:#262261;fill-opacity:1;fill-rule:nonzero;stroke:none" transform="matrix(1.3333333,0,0,-1.3333333,290.99173,307.39267)" clip-path="url(#clipPath78)"></path>
        <path id="path79" d="m 0,0 h -21.168 c -4.442,0 -8.445,2.622 -10.198,6.68 -2.83,6.552 -7.984,11.745 -14.513,14.62 -4.564,2.011 -7.513,6.455 -7.513,11.322 v 21.081 h 6.914 V 32.622 c 0,-2.128 1.33,-4.088 3.387,-4.994 8.13,-3.582 14.548,-10.048 18.072,-18.207 0.658,-1.523 2.169,-2.507 3.851,-2.507 H 0 c 1.681,0 3.192,0.984 3.851,2.508 3.523,8.158 9.941,14.624 18.072,18.206 2.057,0.906 3.386,2.866 3.386,4.994 v 21.081 h 6.914 V 32.622 C 32.223,27.755 29.275,23.311 24.711,21.3 18.181,18.424 13.027,13.232 10.198,6.68 8.445,2.622 4.442,0 0,0" style="fill:#262261;fill-opacity:1;fill-rule:nonzero;stroke:none" transform="matrix(1.3333333,0,0,-1.3333333,173.48427,544.58467)" clip-path="url(#clipPath80)"></path>
        <path id="path81" d="m 342.677,256.544 h -6.914 v 44.54 h 6.914 z" style="fill:#262261;fill-opacity:1;fill-rule:nonzero;stroke:none" transform="matrix(1.3333333,0,0,-1.3333333,-292.9212,941.42094)" clip-path="url(#clipPath82)"></path>
        <path id="path83" d="m 0,0 c 0,-2.068 1.676,-3.744 3.744,-3.744 2.068,0 3.745,1.676 3.745,3.744 0,2.068 -1.677,3.744 -3.745,3.744 C 1.676,3.744 0,2.068 0,0" style="fill:#ffffff;fill-opacity:1;fill-rule:nonzero;stroke:none" transform="matrix(1.3333333,0,0,-1.3333333,186.154,489.61987)" clip-path="url(#clipPath84)"></path>
        <path id="path85" d="m 0,0 c 0,-2.068 1.676,-3.744 3.744,-3.744 2.068,0 3.745,1.676 3.745,3.744 0,2.068 -1.677,3.744 -3.745,3.744 C 1.676,3.744 0,2.068 0,0" style="fill:#ffffff;fill-opacity:1;fill-rule:nonzero;stroke:none" transform="matrix(1.3333333,0,0,-1.3333333,172.11293,489.61987)" clip-path="url(#clipPath86)"></path>
      </g>
    </g>
  </g>
</svg>